<?xml version="1.0" encoding="UTF-8" standalone="no"?>
<svg
   width="20"
   height="15"
   viewBox="0 0 20 14.999999"
   fill="none"
   version="1.1"
   id="svg326"
   sodipodi:docname="logo__mini.svg"
   inkscape:version="1.2 (dc2aedaf03, 2022-05-15)"
   xmlns:inkscape="http://www.inkscape.org/namespaces/inkscape"
   xmlns:sodipodi="http://sodipodi.sourceforge.net/DTD/sodipodi-0.dtd"
   xmlns="http://www.w3.org/2000/svg"
   xmlns:svg="http://www.w3.org/2000/svg">
  <defs
     id="defs330" />
  <sodipodi:namedview
     id="namedview328"
     pagecolor="#ffffff"
     bordercolor="#000000"
     borderopacity="0.25"
     inkscape:showpageshadow="2"
     inkscape:pageopacity="0.0"
     inkscape:pagecheckerboard="0"
     inkscape:deskcolor="#d1d1d1"
     showgrid="false"
     inkscape:zoom="19.063599"
     inkscape:cx="7.396295"
     inkscape:cy="13.166454"
     inkscape:window-width="1366"
     inkscape:window-height="705"
     inkscape:window-x="-8"
     inkscape:window-y="-8"
     inkscape:window-maximized="1"
     inkscape:current-layer="svg326" />
  <g
     id="g505"
     transform="translate(0,-2.5)">
    <rect
       style="fill:#ffffff;fill-rule:evenodd;stroke-width:3;stroke-linecap:round;stroke-linejoin:round;stroke-miterlimit:10;stroke-dashoffset:74.3552"
       id="rect447"
       width="13.795926"
       height="6.9766469"
       x="3.1473596"
       y="4.9833193" />
    <path
       d="M 19.972662,14.382148 18.838049,6.1749971 C 18.546502,4.0642893 16.787285,2.5 14.715676,2.5 H 5.2843309 C 3.2127667,2.5 1.4534959,4.0642893 1.1620197,6.1749971 L 0.02734459,14.382148 C -0.20168002,16.032084 1.0370987,17.5 2.6506313,17.5 3.3585048,17.5 4.0247351,17.210715 4.52441,16.69643 l 2.3526627,-2.410711 h 6.2458703 l 2.342224,2.410711 C 15.964886,17.210715 16.641555,17.5 17.33898,17.5 c 1.623955,0 2.862698,-1.467916 2.633682,-3.117852 z M 8.9590588,8.9285242 H 6.8770727 V 11.071439 H 5.8360621 V 8.9285242 H 3.7540848 V 7.8571586 H 5.8360621 V 5.7142805 H 6.8770727 V 7.8571586 H 8.9590588 Z M 13.122943,7.8571586 c -0.57254,0 -1.040948,-0.4821421 -1.040948,-1.0714574 0,-0.5892787 0.468408,-1.0714207 1.040948,-1.0714207 0.572539,0 1.041037,0.482142 1.041037,1.0714207 0,0.5893153 -0.468498,1.0714574 -1.041037,1.0714574 z m 2.081986,3.2142804 c -0.572539,0 -1.040949,-0.482142 -1.040949,-1.0714573 0,-0.589315 0.46841,-1.0714575 1.040949,-1.0714575 0.57254,0 1.041038,0.4821425 1.041038,1.0714575 0,0.5893153 -0.468498,1.0714573 -1.041038,1.0714573 z"
       fill="#2a7ae4"
       id="path306"
       style="stroke-width:0.898711" />
  </g>
</svg>
