<?xml version="1.0" encoding="UTF-8" standalone="no"?>
<svg
   width="20"
   height="3.5"
   viewBox="0 0 20 3.5"
   fill="none"
   version="1.1"
   id="svg212"
   sodipodi:docname="logo.svg"
   inkscape:version="1.2 (dc2aedaf03, 2022-05-15)"
   xmlns:inkscape="http://www.inkscape.org/namespaces/inkscape"
   xmlns:sodipodi="http://sodipodi.sourceforge.net/DTD/sodipodi-0.dtd"
   xmlns="http://www.w3.org/2000/svg"
   xmlns:svg="http://www.w3.org/2000/svg">
  <defs
     id="defs216" />
  <sodipodi:namedview
     id="namedview214"
     pagecolor="#ffffff"
     bordercolor="#000000"
     borderopacity="0.25"
     inkscape:showpageshadow="2"
     inkscape:pageopacity="0.0"
     inkscape:pagecheckerboard="0"
     inkscape:deskcolor="#d1d1d1"
     showgrid="false"
     inkscape:zoom="32"
     inkscape:cx="4.921875"
     inkscape:cy="1.90625"
     inkscape:window-width="1366"
     inkscape:window-height="705"
     inkscape:window-x="-8"
     inkscape:window-y="-8"
     inkscape:window-maximized="1"
     inkscape:current-layer="svg212" />
  <g
     id="g531"
     transform="matrix(0.20583225,0,0,0.21428536,-0.58322516,-1.2499993)">
    <g
       id="g517">
      <rect
         style="fill:#ffffff;fill-rule:evenodd;stroke-width:3;stroke-linecap:round;stroke-linejoin:round;stroke-miterlimit:10;stroke-dashoffset:74.3552"
         id="rect513"
         width="14.926591"
         height="6.8107667"
         x="6.8107667"
         y="8.6052198" />
      <path
         d="M 25.5432,18.7717 24.2531,9.83501 C 23.9216,7.53668 21.9213,5.83334 19.5658,5.83334 H 8.84199 c -2.35545,0 -4.35581,1.70334 -4.68723,4.00167 L 2.86459,18.7717 c -0.26041,1.7966 1.14813,3.395 2.98278,3.395 0.80488,0 1.56241,-0.315 2.13056,-0.875 l 2.67507,-2.625 h 7.1018 l 2.6632,2.625 c 0.5682,0.56 1.3376,0.875 2.1306,0.875 1.8465,0 3.255,-1.5984 2.9946,-3.395 z M 13.0203,12.8333 H 10.653 v 2.3334 H 9.46933 V 12.8333 H 7.10204 V 11.6667 H 9.46933 V 9.33334 H 10.653 v 2.33336 h 2.3673 z m 4.7345,-1.1666 c -0.651,0 -1.1836,-0.525 -1.1836,-1.1667 0,-0.64166 0.5326,-1.16666 1.1836,-1.16666 0.651,0 1.1837,0.525 1.1837,1.16666 0,0.6417 -0.5327,1.1667 -1.1837,1.1667 z m 2.3673,3.5 c -0.651,0 -1.1836,-0.525 -1.1836,-1.1667 0,-0.6417 0.5326,-1.1667 1.1836,-1.1667 0.651,0 1.1837,0.525 1.1837,1.1667 0,0.6417 -0.5327,1.1667 -1.1837,1.1667 z"
         fill="#2a7ae4"
         id="path192" />
    </g>
    <path
       d="m 72.7733,17.92 c -0.8049,0.7934 -1.7423,1.19 -2.8123,1.19 -0.6629,0 -1.2878,-0.1306 -1.8749,-0.392 -0.5776,-0.2613 -1.0842,-0.6206 -1.5198,-1.078 -0.4261,-0.4573 -0.767,-0.994 -1.0227,-1.61 -0.2462,-0.6253 -0.3693,-1.2973 -0.3693,-2.016 0,-0.6813 0.1231,-1.3206 0.3693,-1.918 0.2557,-0.6066 0.6013,-1.134 1.0369,-1.582 0.445,-0.4573 0.9658,-0.81663 1.5624,-1.07796 0.5966,-0.27067 1.2452,-0.406 1.9459,-0.406 0.9469,0 1.7565,0.196 2.4289,0.588 0.6817,0.39196 1.1931,0.91936 1.534,1.58196 l -1.463,1.064 c -0.2557,-0.4946 -0.6155,-0.8726 -1.0795,-1.134 -0.4545,-0.2613 -0.9517,-0.392 -1.4914,-0.392 -0.4261,0 -0.8191,0.0887 -1.1789,0.266 -0.3504,0.1774 -0.6534,0.42 -0.9091,0.728 -0.2462,0.308 -0.4403,0.6627 -0.5823,1.064 -0.1326,0.4014 -0.1989,0.826 -0.1989,1.274 0,0.4667 0.0758,0.9054 0.2273,1.316 0.1515,0.4014 0.3598,0.7514 0.625,1.05 0.2651,0.2987 0.5776,0.5367 0.9374,0.714 0.3693,0.168 0.767,0.252 1.1931,0.252 0.9753,0 1.856,-0.4526 2.6419,-1.358 v -0.7 H 70.7422 V 13.93 h 3.6503 v 5.11 h -1.6192 z"
       fill="#464646"
       id="path194" />
    <path
       d="m 79.3299,19.18 c -0.5966,0 -1.1363,-0.098 -1.6192,-0.294 -0.483,-0.2053 -0.8949,-0.4806 -1.2358,-0.826 -0.3408,-0.3453 -0.606,-0.7466 -0.7954,-1.204 -0.1799,-0.4573 -0.2698,-0.938 -0.2698,-1.442 0,-0.5226 0.0899,-1.0126 0.2698,-1.47 0.18,-0.4666 0.4404,-0.8726 0.7812,-1.218 0.3409,-0.3546 0.7528,-0.6346 1.2358,-0.84 0.4924,-0.2053 1.0416,-0.308 1.6476,-0.308 0.606,0 1.1458,0.1027 1.6192,0.308 0.483,0.2054 0.8901,0.4807 1.2216,0.826 0.3408,0.3454 0.5965,0.7467 0.767,1.204 0.1799,0.4574 0.2698,0.9334 0.2698,1.428 0,0.1214 -0.0047,0.238 -0.0142,0.35 0,0.112 -0.0094,0.2054 -0.0284,0.28 h -5.7525 c 0.0284,0.2894 0.0994,0.546 0.2131,0.77 0.1136,0.224 0.2604,0.4154 0.4403,0.574 0.1799,0.1587 0.3835,0.28 0.6107,0.364 0.2273,0.084 0.464,0.126 0.7102,0.126 0.3788,0 0.7339,-0.0886 1.0653,-0.266 0.3409,-0.1866 0.5729,-0.4293 0.696,-0.728 l 1.6334,0.448 c -0.2746,0.56 -0.7149,1.022 -1.3209,1.386 -0.5966,0.3547 -1.3115,0.532 -2.1448,0.532 z m 1.9317,-4.424 c -0.0473,-0.5506 -0.2557,-0.9893 -0.625,-1.316 -0.3598,-0.336 -0.8001,-0.504 -1.3209,-0.504 -0.2557,0 -0.4971,0.0467 -0.7244,0.14 -0.2178,0.084 -0.4119,0.2054 -0.5823,0.364 -0.1705,0.1587 -0.3125,0.35 -0.4262,0.574 -0.1041,0.224 -0.1657,0.4714 -0.1846,0.742 z"
       fill="#464646"
       id="path196" />
    <path
       d="m 87.8327,19.18 c -0.5965,0 -1.1363,-0.098 -1.6192,-0.294 -0.4829,-0.2053 -0.8948,-0.4806 -1.2357,-0.826 -0.3409,-0.3453 -0.606,-0.7466 -0.7954,-1.204 -0.1799,-0.4573 -0.2699,-0.938 -0.2699,-1.442 0,-0.5226 0.09,-1.0126 0.2699,-1.47 0.1799,-0.4666 0.4403,-0.8726 0.7812,-1.218 0.3409,-0.3546 0.7528,-0.6346 1.2357,-0.84 0.4924,-0.2053 1.0416,-0.308 1.6476,-0.308 0.6061,0 1.1458,0.1027 1.6193,0.308 0.4829,0.2054 0.8901,0.4807 1.2215,0.826 0.3409,0.3454 0.5965,0.7467 0.767,1.204 0.1799,0.4574 0.2699,0.9334 0.2699,1.428 0,0.1214 -0.0048,0.238 -0.0142,0.35 0,0.112 -0.0095,0.2054 -0.0285,0.28 h -5.7525 c 0.0284,0.2894 0.0995,0.546 0.2131,0.77 0.1136,0.224 0.2604,0.4154 0.4403,0.574 0.1799,0.1587 0.3835,0.28 0.6108,0.364 0.2272,0.084 0.464,0.126 0.7102,0.126 0.3787,0 0.7338,-0.0886 1.0652,-0.266 0.3409,-0.1866 0.5729,-0.4293 0.696,-0.728 l 1.6334,0.448 c -0.2746,0.56 -0.7149,1.022 -1.3209,1.386 -0.5966,0.3547 -1.3115,0.532 -2.1448,0.532 z m 1.9317,-4.424 c -0.0473,-0.5506 -0.2556,-0.9893 -0.6249,-1.316 -0.3599,-0.336 -0.8002,-0.504 -1.321,-0.504 -0.2556,0 -0.4971,0.0467 -0.7244,0.14 -0.2178,0.084 -0.4119,0.2054 -0.5823,0.364 -0.1705,0.1587 -0.3125,0.35 -0.4261,0.574 -0.1042,0.224 -0.1657,0.4714 -0.1847,0.742 z"
       fill="#464646"
       id="path198" />
    <path
       d="M 97.969,19.04 95.81,15.862 94.7874,16.856 V 19.04 H 92.8841 V 8.82004 h 1.9033 V 15.022 l 2.9827,-3.304 h 2.0312 L 97.0315,14.826 100,19.04 Z"
       fill="#464646"
       id="path200" />
    <path
       d="m 32.2569,9.10004 h 1.7329 l 3.835,9.93996 h -2.0169 l -0.9375,-2.478 h -3.5225 l -0.9233,2.478 h -2.0169 z m 2.2584,6.10396 -1.3919,-3.906 -1.4488,3.906 z"
       fill="#2a7ae4"
       id="path202" />
    <path
       d="m 38.7321,8.82004 h 1.9033 V 16.688 c 0,0.2707 0.0662,0.4807 0.1988,0.63 0.1326,0.1494 0.322,0.224 0.5682,0.224 0.1136,0 0.2367,-0.0186 0.3693,-0.056 0.142,-0.0373 0.2746,-0.084 0.3977,-0.14 l 0.2556,1.428 c -0.2556,0.1214 -0.5539,0.2147 -0.8948,0.28 -0.3409,0.0654 -0.6486,0.098 -0.9232,0.098 -0.5966,0 -1.0606,-0.154 -1.392,-0.462 -0.322,-0.3173 -0.4829,-0.7653 -0.4829,-1.344 z"
       fill="#2a7ae4"
       id="path204" />
    <path
       d="m 45.5269,19.18 c -0.767,0 -1.3494,-0.2426 -1.7471,-0.728 -0.3977,-0.4853 -0.5965,-1.204 -0.5965,-2.156 v -4.592 h 1.9033 v 4.186 c 0,1.1294 0.4119,1.694 1.2357,1.694 0.3693,0 0.7244,-0.1073 1.0653,-0.322 0.3503,-0.224 0.6344,-0.56 0.8522,-1.008 v -4.55 h 1.9033 v 5.18 c 0,0.196 0.0331,0.336 0.0994,0.42 0.0758,0.084 0.1942,0.1307 0.3551,0.14 v 1.596 c -0.1894,0.0374 -0.3503,0.0607 -0.4829,0.07 -0.1231,0.0094 -0.2367,0.014 -0.3409,0.014 -0.3409,0 -0.6202,-0.0746 -0.838,-0.224 -0.2083,-0.1586 -0.3314,-0.3733 -0.3693,-0.644 l -0.0426,-0.588 c -0.3314,0.504 -0.7576,0.882 -1.2784,1.134 -0.5208,0.252 -1.0936,0.378 -1.7186,0.378 z"
       fill="#2a7ae4"
       id="path206" />
    <path
       d="m 56.4661,13.328 c -0.5776,0.0094 -1.0937,0.1214 -1.5482,0.336 -0.4545,0.2054 -0.7812,0.518 -0.9801,0.938 v 4.438 h -1.9033 v -7.336 h 1.7471 v 1.568 c 0.1326,-0.252 0.2888,-0.476 0.4687,-0.672 0.1799,-0.2053 0.3741,-0.3826 0.5824,-0.532 0.2083,-0.1493 0.4166,-0.2613 0.6249,-0.336 0.2178,-0.084 0.4261,-0.126 0.625,-0.126 0.1042,0 0.1799,0 0.2273,0 0.0568,0 0.1089,0.0047 0.1562,0.014 z"
       fill="#2a7ae4"
       id="path208" />
    <path
       d="m 59.4614,19.18 c -0.3598,0 -0.696,-0.056 -1.0084,-0.168 -0.3125,-0.1213 -0.5824,-0.2846 -0.8097,-0.49 C 57.4161,18.3074 57.2362,18.06 57.1036,17.78 56.9805,17.5 56.919,17.192 56.919,16.856 c 0,-0.3453 0.0757,-0.6626 0.2272,-0.952 0.161,-0.2986 0.3788,-0.5506 0.6534,-0.756 0.2841,-0.2053 0.6202,-0.364 1.0085,-0.476 0.3882,-0.1213 0.8143,-0.182 1.2783,-0.182 0.3314,0 0.6534,0.028 0.9658,0.084 0.322,0.056 0.6061,0.1354 0.8523,0.238 v -0.42 c 0,-0.4853 -0.1421,-0.8586 -0.4261,-1.12 -0.2746,-0.2613 -0.6866,-0.392 -1.2358,-0.392 -0.3977,0 -0.7859,0.07 -1.1647,0.21 -0.3787,0.14 -0.767,0.3454 -1.1647,0.616 l -0.5823,-1.19 c 0.9563,-0.6253 1.9885,-0.938 3.0964,-0.938 1.07,0 1.8985,0.2614 2.4856,0.784 0.5966,0.5134 0.8949,1.26 0.8949,2.24 v 2.282 c 0,0.196 0.0331,0.336 0.0994,0.42 0.0758,0.084 0.1941,0.1307 0.3551,0.14 v 1.596 c -0.322,0.0654 -0.6013,0.098 -0.838,0.098 -0.3599,0 -0.6392,-0.0793 -0.838,-0.238 -0.1894,-0.1586 -0.3078,-0.3686 -0.3551,-0.63 l -0.0427,-0.406 c -0.3314,0.4294 -0.7338,0.756 -1.2073,0.98 -0.4734,0.224 -0.98,0.336 -1.5198,0.336 z m 0.5398,-1.372 c 0.3219,0 0.6249,-0.056 0.909,-0.168 0.2936,-0.112 0.5208,-0.2613 0.6818,-0.448 0.2083,-0.1586 0.3125,-0.336 0.3125,-0.532 v -0.84 c -0.2273,-0.084 -0.4735,-0.1493 -0.7386,-0.196 -0.2652,-0.056 -0.5208,-0.084 -0.767,-0.084 -0.4924,0 -0.8949,0.112 -1.2073,0.336 -0.3125,0.2147 -0.4688,0.49 -0.4688,0.826 0,0.3174 0.1231,0.5834 0.3693,0.798 0.2462,0.2054 0.5492,0.308 0.9091,0.308 z"
       fill="#2a7ae4"
       id="path210" />
  </g>
</svg>
