<?xml version="1.0" encoding="UTF-8" standalone="no"?>
<svg
   width="20"
   height="3.5"
   viewBox="0 0 20 3.5"
   fill="none"
   version="1.1"
   id="svg212"
   sodipodi:docname="footer-logo.svg"
   inkscape:version="1.2 (dc2aedaf03, 2022-05-15)"
   xmlns:inkscape="http://www.inkscape.org/namespaces/inkscape"
   xmlns:sodipodi="http://sodipodi.sourceforge.net/DTD/sodipodi-0.dtd"
   xmlns="http://www.w3.org/2000/svg"
   xmlns:svg="http://www.w3.org/2000/svg">
  <defs
     id="defs216" />
  <sodipodi:namedview
     id="namedview214"
     pagecolor="#ffffff"
     bordercolor="#000000"
     borderopacity="0.25"
     inkscape:showpageshadow="2"
     inkscape:pageopacity="0.0"
     inkscape:pagecheckerboard="0"
     inkscape:deskcolor="#d1d1d1"
     showgrid="false"
     inkscape:zoom="22.627417"
     inkscape:cx="8.7946406"
     inkscape:cy="1.3258252"
     inkscape:window-width="1366"
     inkscape:window-height="705"
     inkscape:window-x="-8"
     inkscape:window-y="-8"
     inkscape:window-maximized="1"
     inkscape:current-layer="svg212" />
  <g
     id="g1417">
    <g
       id="g1388">
      <rect
         style="fill:#ffffff;fill-rule:evenodd;stroke-width:0.630049;stroke-linecap:round;stroke-linejoin:round;stroke-miterlimit:10;stroke-dashoffset:74.3552"
         id="rect513"
         width="3.0723739"
         height="1.4594476"
         x="0.81865025"
         y="0.59397334" />
      <path
         d="M 4.6743892,2.7725012 4.408845,0.85749936 C 4.3406116,0.36500089 3.9288853,6.19024e-8 3.4440475,6.19024e-8 H 1.2367415 C 0.75191396,6.19024e-8 0.34017536,0.36500089 0.27195844,0.85749936 L 0.00639985,2.7725012 C -0.04720093,3.1574863 0.24272203,3.5 0.62035216,3.5 0.78602243,3.5 0.94194653,3.4325001 1.0588901,3.3125003 L 1.6095058,2.7500012 H 3.0712853 L 3.6194577,3.3125003 C 3.7364116,3.4325001 3.8947789,3.5 4.0580039,3.5 4.4380732,3.5 4.7279879,3.1574863 4.6743892,2.7725012 Z M 2.0967725,1.499989 H 1.6095058 V 2.0000025 H 1.3658683 V 1.499989 H 0.87860371 V 1.2500037 H 1.3658683 V 0.74999882 H 1.6095058 V 1.2500037 H 2.0967725 Z M 3.0712853,1.2500037 c -0.1339968,0 -0.2436231,-0.1124998 -0.2436231,-0.25000672 0,-0.13749834 0.1096263,-0.24999816 0.2436231,-0.24999816 0.1339968,0 0.2436436,0.11249982 0.2436436,0.24999816 0,0.13750692 -0.1096468,0.25000672 -0.2436436,0.25000672 z M 3.558552,2.0000025 c -0.1339968,0 -0.2436231,-0.1124998 -0.2436231,-0.2500068 0,-0.1375069 0.1096263,-0.2500067 0.2436231,-0.2500067 0.1339968,0 0.2436436,0.1124998 0.2436436,0.2500067 0,0.137507 -0.1096468,0.2500068 -0.2436436,0.2500068 z"
         fill="#2a7ae4"
         id="path192"
         style="stroke-width:0.210016;fill:#464646;fill-opacity:1" />
    </g>
    <g
       id="g1401">
      <path
         d="m 14.395867,2.5899944 c -0.165674,0.170014 -0.358622,0.2549995 -0.578862,0.2549995 -0.136446,0 -0.265071,-0.027986 -0.385915,-0.084 -0.118889,-0.055993 -0.223163,-0.1329855 -0.312824,-0.2309996 -0.0877,-0.097993 -0.157873,-0.2129997 -0.210504,-0.3449995 -0.05068,-0.1339926 -0.07601,-0.2779924 -0.07601,-0.4319993 0,-0.1459926 0.02534,-0.2829852 0.07601,-0.4109993 0.05263,-0.1299855 0.123766,-0.2429996 0.213427,-0.3389994 0.09159,-0.0979927 0.198793,-0.17499188 0.321592,-0.23099107 0.1228,-0.0580006 0.256303,-0.0869999 0.400529,-0.0869999 0.194903,0 0.361545,0.0419999 0.499946,0.12599979 0.140316,0.0839913 0.245579,0.19700548 0.315747,0.33899088 L 14.35787,1.3779964 C 14.30524,1.2720108 14.231181,1.1910109 14.135674,1.1349968 c -0.09355,-0.055993 -0.19589,-0.084 -0.306978,-0.084 -0.08771,0 -0.168597,0.019007 -0.242655,0.057 -0.07212,0.038014 -0.134491,0.09 -0.187123,0.1559997 -0.05068,0.066 -0.09063,0.142007 -0.119856,0.2279997 -0.02729,0.086014 -0.04094,0.1769997 -0.04094,0.2729995 0,0.100007 0.0156,0.194014 0.04679,0.2819995 0.03118,0.086014 0.07406,0.1610141 0.128645,0.2249997 0.05457,0.064007 0.118889,0.1150069 0.192947,0.1529997 0.07601,0.036 0.157874,0.054 0.245579,0.054 0.200748,0 0.382024,-0.096986 0.543788,-0.2909995 V 2.0379953 h -0.41807 V 1.7349958 H 14.72915 V 2.829994 h -0.333283 z"
         fill="#464646"
         id="path194"
         style="stroke-width:0.210016" />
      <path
         d="m 15.745427,2.8599939 c -0.1228,0 -0.233888,-0.021 -0.333284,-0.063 -0.09942,-0.043993 -0.184199,-0.1029855 -0.254367,-0.1769997 -0.07015,-0.073993 -0.124735,-0.1599854 -0.163719,-0.2579996 -0.03703,-0.097993 -0.05553,-0.2009996 -0.05553,-0.3089995 0,-0.1119855 0.0185,-0.2169853 0.05553,-0.3149994 0.03705,-0.099986 0.09065,-0.1869854 0.160796,-0.2609996 0.07017,-0.075986 0.15495,-0.1359855 0.254367,-0.1799997 0.101352,-0.043993 0.214395,-0.066 0.339129,-0.066 0.124735,0 0.235843,0.022007 0.333284,0.066 0.09942,0.044014 0.183211,0.103007 0.251445,0.1769997 0.07015,0.074014 0.122779,0.1600069 0.157873,0.2579996 0.03703,0.098014 0.05553,0.2000139 0.05553,0.3059995 0,0.026014 -9.68e-4,0.051 -0.0029,0.075 0,0.024 -0.0019,0.044014 -0.0058,0.06 h -1.18405 c 0.0058,0.062014 0.02046,0.1169998 0.04386,0.1649998 0.02338,0.048 0.0536,0.089014 0.09063,0.1229998 0.03703,0.034007 0.07894,0.06 0.125702,0.078 0.04678,0.018 0.09551,0.027 0.146182,0.027 0.07797,0 0.15106,-0.018986 0.219273,-0.057 0.07017,-0.039986 0.117921,-0.091993 0.143259,-0.1559998 l 0.336206,0.096 c -0.05652,0.1199998 -0.147149,0.2189996 -0.271883,0.2969995 -0.1228,0.076007 -0.269949,0.1139998 -0.441469,0.1139998 z M 16.143033,1.9119955 C 16.133297,1.79401 16.090402,1.700003 16.014388,1.6299959 c -0.07406,-0.072 -0.164687,-0.1079998 -0.271884,-0.1079998 -0.05263,0 -0.102319,0.010007 -0.149105,0.03 -0.04483,0.018 -0.08478,0.044014 -0.119856,0.078 -0.0351,0.034007 -0.06432,0.075 -0.08773,0.1229998 -0.02143,0.048 -0.03411,0.1010142 -0.038,0.1589998 z"
         fill="#464646"
         id="path196"
         style="stroke-width:0.210016" />
      <path
         d="m 17.495577,2.8599939 c -0.122779,0 -0.233887,-0.021 -0.333283,-0.063 -0.0994,-0.043993 -0.184179,-0.1029855 -0.254347,-0.1769997 -0.07017,-0.073993 -0.124735,-0.1599854 -0.163719,-0.2579996 -0.03703,-0.097993 -0.05555,-0.2009996 -0.05555,-0.3089995 0,-0.1119855 0.01852,-0.2169853 0.05555,-0.3149994 0.03703,-0.099986 0.09063,-0.1869854 0.160796,-0.2609996 0.07017,-0.075986 0.15495,-0.1359855 0.254347,-0.1799997 0.101352,-0.043993 0.214395,-0.066 0.339129,-0.066 0.124755,0 0.235843,0.022007 0.333304,0.066 0.0994,0.044014 0.183211,0.103007 0.251424,0.1769997 0.07017,0.074014 0.122779,0.1600069 0.157874,0.2579996 0.03703,0.098014 0.05555,0.2000139 0.05555,0.3059995 0,0.026014 -9.88e-4,0.051 -0.0029,0.075 0,0.024 -0.002,0.044014 -0.0059,0.06 h -1.18405 c 0.0058,0.062014 0.02048,0.1169998 0.04386,0.1649998 0.02338,0.048 0.0536,0.089014 0.09063,0.1229998 0.03703,0.034007 0.07894,0.06 0.125723,0.078 0.04677,0.018 0.09551,0.027 0.146182,0.027 0.07795,0 0.151039,-0.018986 0.219252,-0.057 0.07017,-0.039986 0.117922,-0.091993 0.14326,-0.1559998 l 0.336206,0.096 c -0.05652,0.1199998 -0.14715,0.2189996 -0.271884,0.2969995 -0.122799,0.076007 -0.269949,0.1139998 -0.441469,0.1139998 z M 17.893183,1.9119955 C 17.883447,1.79401 17.840573,1.700003 17.764559,1.6299959 c -0.07408,-0.072 -0.164707,-0.1079998 -0.271905,-0.1079998 -0.05261,0 -0.102319,0.010007 -0.149105,0.03 -0.04483,0.018 -0.08478,0.044014 -0.119856,0.078 -0.03509,0.034007 -0.06432,0.075 -0.0877,0.1229998 -0.02145,0.048 -0.03411,0.1010142 -0.03802,0.1589998 z"
         fill="#464646"
         id="path198"
         style="stroke-width:0.210016" />
      <path
         d="M 19.581955,2.829994 19.137563,2.1489951 18.927079,2.3619947 V 2.829994 H 18.535318 V 0.64000615 h 0.391761 V 1.9689954 l 0.613936,-0.7079989 h 0.418086 L 19.388987,1.9269954 20,2.829994 Z"
         fill="#464646"
         id="path200"
         style="stroke-width:0.210016" />
    </g>
    <g
       id="g1395">
      <path
         d="M 6.0562851,0.70000605 H 6.4129719 L 7.2023385,2.829994 H 6.7871955 L 6.5942277,2.2989948 H 5.8691836 L 5.6791387,2.829994 H 5.2639956 Z M 6.5211367,2.0079953 6.2346388,1.1709967 5.936429,2.0079953 Z"
         fill="#2a7ae4"
         id="path202"
         style="stroke-width:0.210016;fill:#464646;fill-opacity:1" />
      <path
         d="M 7.3890901,0.64000615 H 7.7808507 V 2.3259948 c 0,0.058007 0.013626,0.103007 0.040919,0.1349998 0.027293,0.032014 0.066278,0.048 0.1169539,0.048 0.023383,0 0.04872,-0.00399 0.076014,-0.012 0.029228,-0.00799 0.056522,-0.018 0.08186,-0.03 l 0.05261,0.3059994 c -0.052611,0.026014 -0.1140104,0.046007 -0.1841787,0.06 -0.070168,0.014014 -0.1335027,0.021 -0.1900243,0.021 -0.1227995,0 -0.2183057,-0.033 -0.2865185,-0.099 C 7.4222085,2.687001 7.3890905,2.5910014 7.3890905,2.4669945 Z"
         fill="#2a7ae4"
         id="path204"
         style="stroke-width:0.210016;fill:#464646;fill-opacity:1" />
      <path
         d="m 8.7876791,2.8599939 c -0.1578733,0 -0.27775,-0.051986 -0.3596095,-0.1559997 C 8.3462101,2.6000015 8.3052906,2.4459946 8.3052906,2.2419949 V 1.2579966 h 0.3917606 v 0.8969985 c 0,0.2420139 0.084782,0.3629994 0.2543469,0.3629994 0.076014,0 0.1491049,-0.022993 0.2192731,-0.069 0.072103,-0.048 0.1305799,-0.1199998 0.1754102,-0.2159997 V 1.2579966 h 0.3917605 v 1.1099981 c 0,0.042 0.00681,0.072 0.02046,0.09 0.015602,0.018 0.039973,0.028007 0.073091,0.03 V 2.829994 c -0.038985,0.00801 -0.072103,0.013007 -0.099396,0.015 -0.025338,0.00201 -0.04872,0.003 -0.070168,0.003 -0.070168,0 -0.1276572,-0.015986 -0.1724874,-0.048 C 9.4464665,2.766008 9.4211285,2.720001 9.4133275,2.6619942 l -0.00877,-0.1259998 c -0.068213,0.1079999 -0.1559386,0.1889997 -0.263136,0.2429996 -0.1071974,0.054 -0.2250981,0.081 -0.3537424,0.081 z"
         fill="#2a7ae4"
         id="path206"
         style="stroke-width:0.210016;fill:#464646;fill-opacity:1" />
      <path
         d="M 11.039319,1.605996 C 10.920431,1.608006 10.814201,1.63201 10.72065,1.677996 10.6271,1.72201 10.559854,1.7889958 10.518914,1.8789956 V 2.829994 H 10.127153 V 1.2579966 h 0.35961 V 1.593996 c 0.02729,-0.054 0.05944,-0.1019998 0.09647,-0.1439998 0.03703,-0.043993 0.077,-0.081986 0.119877,-0.1139998 0.04288,-0.031993 0.08575,-0.055993 0.128624,-0.072 0.04483,-0.018 0.08771,-0.027 0.128646,-0.027 0.02145,0 0.03703,0 0.04678,0 0.01169,0 0.02242,0.00101 0.03215,0.003 z"
         fill="#2a7ae4"
         id="path208"
         style="stroke-width:0.210016;fill:#464646;fill-opacity:1" />
      <path
         d="m 11.655849,2.8599939 c -0.07406,0 -0.14326,-0.012 -0.207562,-0.036 -0.06432,-0.025993 -0.119876,-0.060986 -0.166662,-0.1049999 -0.04677,-0.045986 -0.08379,-0.099 -0.111088,-0.1589997 -0.02534,-0.06 -0.038,-0.1259998 -0.038,-0.1979997 0,-0.073993 0.01558,-0.1419855 0.04677,-0.2039996 0.03314,-0.063986 0.07797,-0.1179856 0.134491,-0.1619998 0.05848,-0.043993 0.127657,-0.078 0.207581,-0.1019998 0.0799,-0.025993 0.16761,-0.039 0.263116,-0.039 0.06821,0 0.134491,0.006 0.198793,0.018 0.06628,0.012 0.124754,0.029014 0.17543,0.051 v -0.09 c 0,-0.1039927 -0.02925,-0.1839854 -0.0877,-0.2399996 -0.05652,-0.055993 -0.141324,-0.084 -0.254367,-0.084 -0.08186,0 -0.161764,0.015 -0.239733,0.045 -0.07795,0.03 -0.157873,0.074014 -0.239733,0.1319997 L 11.217323,1.4319963 c 0.196837,-0.1339927 0.409297,-0.2009997 0.637339,-0.2009997 0.22024,0 0.390772,0.056014 0.511617,0.1679997 0.122799,0.1100141 0.184199,0.2699996 0.184199,0.4799992 v 0.4889992 c 0,0.042 0.0068,0.072 0.02046,0.09 0.0156,0.018 0.03995,0.028007 0.07309,0.03 V 2.829994 c -0.06628,0.014014 -0.123767,0.021 -0.172488,0.021 -0.07408,0 -0.131568,-0.016993 -0.172487,-0.051 -0.03899,-0.033986 -0.06335,-0.078986 -0.07309,-0.1349998 l -0.0088,-0.087 c -0.06821,0.092014 -0.15104,0.1619997 -0.248502,0.2099996 -0.09744,0.048 -0.201715,0.072 -0.312823,0.072 z m 0.111108,-0.2939995 c 0.06626,0 0.128624,-0.012 0.187101,-0.036 0.06043,-0.024 0.107198,-0.055993 0.140337,-0.096 0.04287,-0.033986 0.06432,-0.072 0.06432,-0.1139998 V 2.1399951 c -0.04678,-0.018 -0.09746,-0.031993 -0.152027,-0.042 -0.05459,-0.012 -0.107198,-0.018 -0.157874,-0.018 -0.101351,0 -0.184199,0.024 -0.248501,0.072 -0.06432,0.046007 -0.09649,0.1049998 -0.09649,0.1769997 0,0.068014 0.02534,0.1250141 0.07601,0.1709997 0.05068,0.044014 0.113043,0.066 0.187122,0.066 z"
         fill="#2a7ae4"
         id="path210"
         style="stroke-width:0.210016;fill:#464646;fill-opacity:1" />
    </g>
  </g>
</svg>
