<svg width="50" height="50" viewBox="0 0 50 50" fill="none" xmlns="http://www.w3.org/2000/svg">
<g clip-path="url(#clip0_201_373)">
<path d="M44.9555 33.5209L42.6847 17.5625C42.1014 13.4584 38.5808 10.4167 34.4352 10.4167H15.5613C11.4157 10.4167 7.89505 13.4584 7.31175 17.5625L5.04105 33.5209C4.58274 36.7292 7.06177 39.5834 10.2907 39.5834C11.7073 39.5834 13.0406 39.0209 14.0405 38.0209L18.7486 33.3334H31.2479L35.9351 38.0209C36.9351 39.0209 38.2892 39.5834 39.6849 39.5834C42.9347 39.5834 45.4138 36.7292 44.9555 33.5209ZM22.915 22.9167H18.7486V27.0834H16.6654V22.9167H12.499V20.8334H16.6654V16.6667H18.7486V20.8334H22.915V22.9167ZM31.2479 20.8334C30.1021 20.8334 29.1647 19.8959 29.1647 18.75C29.1647 17.6042 30.1021 16.6667 31.2479 16.6667C32.3937 16.6667 33.3311 17.6042 33.3311 18.75C33.3311 19.8959 32.3937 20.8334 31.2479 20.8334ZM35.4143 27.0834C34.2686 27.0834 33.3311 26.1459 33.3311 25C33.3311 23.8542 34.2686 22.9167 35.4143 22.9167C36.5601 22.9167 37.4975 23.8542 37.4975 25C37.4975 26.1459 36.5601 27.0834 35.4143 27.0834Z" fill="#2A7AE4"/>
</g>
<defs>
<clipPath id="clip0_201_373">
<rect width="49.9972" height="50" fill="white"/>
</clipPath>
</defs>
</svg>
